<svg xmlns="http://www.w3.org/2000/svg" width="149.445" height="62.714" viewBox="0 0 149.445 62.714">
  <g id="ENV_PLUS" data-name="ENV PLUS" transform="translate(-921.921 -527.728)">
    <g id="RIOT" transform="translate(921.921 527.728)">
      <g id="R" transform="translate(0 0)">
        <path id="Subtraction_2" data-name="Subtraction 2" d="M16.513,33.359A16.322,16.322,0,0,1,4.836,28.473a16.8,16.8,0,0,1,0-23.588,16.395,16.395,0,0,1,23.352,0,16.8,16.8,0,0,1,0,23.588A16.32,16.32,0,0,1,16.513,33.359ZM10.429,20.633v5.222h2.652V20.633Zm2.652-2.68h3.267l3.659,7.875h2.96l-3.826-8.182A6.236,6.236,0,0,0,21.4,16.472a5.479,5.479,0,0,0,1.7-4.385,5.436,5.436,0,0,0-1.7-4.356,7.25,7.25,0,0,0-4.971-1.508h-6V17.952Zm3.352-2.346H13.081V8.57h3.352a3.837,3.837,0,0,1,2.848.949,3.408,3.408,0,0,1,1.005,2.569,3.373,3.373,0,0,1-1.005,2.542A3.969,3.969,0,0,1,16.433,15.606Z" fill="#24a6f6"/>
      </g>
      <g id="I" transform="translate(38.696 0)">
        <path id="Subtraction_1" data-name="Subtraction 1" d="M16.512,33.359A16.32,16.32,0,0,1,4.836,28.473a16.8,16.8,0,0,1,0-23.588,16.395,16.395,0,0,1,23.352,0,16.8,16.8,0,0,1,0,23.588A16.322,16.322,0,0,1,16.512,33.359Zm-1.1-16.524v9.02H18.1v-9.02Zm0-10.556v7.9H18.1v-7.9Z" transform="translate(0)" fill="#24a6f6"/>
      </g>
      <g id="O" transform="translate(77.391 0)">
        <path id="Subtraction_3" data-name="Subtraction 3" d="M16.513,33.359A16.322,16.322,0,0,1,4.836,28.473a16.8,16.8,0,0,1,0-23.588,16.4,16.4,0,0,1,23.352,0,16.8,16.8,0,0,1,0,23.588A16.322,16.322,0,0,1,16.513,33.359Zm1.43-26.726V8.9a6.082,6.082,0,0,1,3.878,1.912,7.56,7.56,0,0,1,1.75,5.224,7.434,7.434,0,0,1-1.75,5.143,6.165,6.165,0,0,1-3.878,1.912V25.4a8.758,8.758,0,0,0,5.628-2.5,9.319,9.319,0,0,0,2.558-6.867A9.236,9.236,0,0,0,23.57,9.165a8.659,8.659,0,0,0-5.628-2.531Zm-2.585.027a8.813,8.813,0,0,0-5.413,2.5,9.319,9.319,0,0,0-2.558,6.867A9.4,9.4,0,0,0,9.945,22.9a8.923,8.923,0,0,0,5.413,2.477V23.06a6.262,6.262,0,0,1-3.608-1.885A7.542,7.542,0,0,1,10,16.031a7.665,7.665,0,0,1,1.75-5.224,6.076,6.076,0,0,1,3.608-1.885V6.66Z" fill="#24a6f6"/>
      </g>
      <g id="T" transform="translate(116.42 0)">
        <path id="Subtraction_4" data-name="Subtraction 4" d="M16.512,33.359A16.322,16.322,0,0,1,4.836,28.473a16.8,16.8,0,0,1,0-23.588,16.4,16.4,0,0,1,23.352,0,16.8,16.8,0,0,1,0,23.588A16.322,16.322,0,0,1,16.512,33.359ZM15.388,11.194V25.855h2.68V11.194Zm0-2.709v.028h2.68V8.485h6.954V6.251H8.434V8.485Z" transform="translate(0)" fill="#24a6f6"/>
      </g>
    </g>
    <g id="Product_Name" data-name="Product Name" transform="translate(926.924 563.755)">
      <g id="Rectangle_3" data-name="Rectangle 3" transform="translate(0 0)" fill="none" stroke="#24a6f6" stroke-width="1">
        <rect width="139.771" height="26.687" rx="6" stroke="none"/>
        <rect x="0.5" y="0.5" width="138.771" height="25.687" rx="5.5" fill="none"/>
      </g>
      <path id="Subtraction_5" data-name="Subtraction 5" d="M58.97,26.687H6a6.007,6.007,0,0,1-6-6V6A6.007,6.007,0,0,1,6,0H58.97a6.007,6.007,0,0,1,6,6V20.687A6.007,6.007,0,0,1,58.97,26.687ZM42.28,6A.848.848,0,0,0,41.9,6.1a.881.881,0,0,0-.455.527.95.95,0,0,0,.023.694L47.092,19a1.856,1.856,0,0,0,.659.718,1.7,1.7,0,0,0,.922.263,1.765,1.765,0,0,0,.933-.263A1.665,1.665,0,0,0,50.252,19l5.6-11.681a.841.841,0,0,0,.036-.694.927.927,0,0,0-.466-.527A.853.853,0,0,0,55.04,6a.9.9,0,0,0-.312.058.923.923,0,0,0-.527.466L48.673,18.09,43.119,6.529a.923.923,0,0,0-.527-.466A.9.9,0,0,0,42.28,6ZM9.608,6a.907.907,0,0,0-.467.12.886.886,0,0,0-.323.335.936.936,0,0,0-.12.455V19.048a.9.9,0,0,0,.91.91h11.7a.9.9,0,0,0,.91-.91.92.92,0,0,0-.12-.455.878.878,0,0,0-.323-.336.915.915,0,0,0-.467-.12H10.518V13.973h5.72a.9.9,0,0,0,.91-.91.868.868,0,0,0-.12-.443,1,1,0,0,0-.323-.335.843.843,0,0,0-.467-.132h-5.72V7.821H21.744A.927.927,0,0,0,22.2,7.7a.848.848,0,0,0,.335-.335.925.925,0,0,0,.12-.454.908.908,0,0,0-.072-.359.883.883,0,0,0-.479-.479A.908.908,0,0,0,21.744,6Zm17.177-.1a1.758,1.758,0,0,0-.662.133,1.664,1.664,0,0,0-.789.646,1.793,1.793,0,0,0-.288.994V18.951a.924.924,0,0,0,.264.659.85.85,0,0,0,.635.275.889.889,0,0,0,.646-.275.9.9,0,0,0,.275-.659V7.845l9,11.2a1.665,1.665,0,0,0,.383.359,1.644,1.644,0,0,0,.982.311,1.777,1.777,0,0,0,.838-.216,1.554,1.554,0,0,0,.491-.382,1.956,1.956,0,0,0,.323-.539,1.69,1.69,0,0,0,.12-.635V6.816a.909.909,0,1,0-1.819,0V17.755L28.111,6.505a.158.158,0,0,0-.072-.072,1.766,1.766,0,0,0-1.254-.528Z" transform="translate(0 0)" fill="#24a6f6"/>
      <path id="PLUS" d="M10.365-14.088a3.8,3.8,0,0,1,2.789,1.161,3.8,3.8,0,0,1,1.161,2.789A3.8,3.8,0,0,1,13.154-7.35a3.8,3.8,0,0,1-2.789,1.161H2.179v5.146A.9.9,0,0,1,1.9-.384a.885.885,0,0,1-.646.275A.846.846,0,0,1,.623-.384.919.919,0,0,1,.36-1.043V-13.178a.879.879,0,0,1,.263-.646.879.879,0,0,1,.646-.263Zm0,6.08a2.054,2.054,0,0,0,1.508-.622,2.054,2.054,0,0,0,.622-1.508,2.054,2.054,0,0,0-.622-1.508,2.054,2.054,0,0,0-1.508-.622H2.179v4.261ZM26.714-2.12a.879.879,0,0,1,.646.263.879.879,0,0,1,.263.646.879.879,0,0,1-.263.646.879.879,0,0,1-.646.263h-9.1a.879.879,0,0,1-.646-.263.879.879,0,0,1-.263-.646v-11.8a.879.879,0,0,1,.263-.646.865.865,0,0,1,.634-.263.9.9,0,0,1,.646.263.86.86,0,0,1,.275.646V-2.12Zm14.673-11.8a.9.9,0,0,1,.359.072.906.906,0,0,1,.287.191.906.906,0,0,1,.191.287.9.9,0,0,1,.072.359v6.08A6.707,6.707,0,0,1,40.25-2.012,6.721,6.721,0,0,1,35.319.034a6.721,6.721,0,0,1-4.931-2.047,6.707,6.707,0,0,1-2.047-4.919v-6.08a.923.923,0,0,1,.12-.455.871.871,0,0,1,.323-.335.9.9,0,0,1,.467-.12.891.891,0,0,1,.634.263.86.86,0,0,1,.275.646v6.08a4.958,4.958,0,0,0,1.508,3.638,4.958,4.958,0,0,0,3.638,1.508,5,5,0,0,0,3.65-1.508,4.939,4.939,0,0,0,1.52-3.638v-6.08a.879.879,0,0,1,.263-.646A.879.879,0,0,1,41.387-13.92ZM48.616-12.1a2.026,2.026,0,0,0-1.484.622,2.04,2.04,0,0,0-.622,1.5,2.079,2.079,0,0,0,.622,1.508,2.007,2.007,0,0,0,1.484.634H54.7a3.823,3.823,0,0,1,2.789,1.149A3.777,3.777,0,0,1,58.645-3.9a3.777,3.777,0,0,1-1.161,2.789A3.823,3.823,0,0,1,54.7.034H45.6a.9.9,0,0,1-.467-.12.9.9,0,0,1-.323-.323.9.9,0,0,1-.12-.467.879.879,0,0,1,.263-.646.879.879,0,0,1,.646-.263h9.1A2.054,2.054,0,0,0,56.2-2.407a2.04,2.04,0,0,0,.622-1.5A2.04,2.04,0,0,0,56.2-5.4,2.054,2.054,0,0,0,54.7-6.021h-6.08a3.763,3.763,0,0,1-2.777-1.161A3.823,3.823,0,0,1,44.69-9.971a3.823,3.823,0,0,1,1.149-2.789,3.763,3.763,0,0,1,2.777-1.161h9.12a.9.9,0,0,1,.359.072.905.905,0,0,1,.287.191.906.906,0,0,1,.191.287.9.9,0,0,1,.072.359.879.879,0,0,1-.263.646.879.879,0,0,1-.646.263Z" transform="translate(71.052 19.995)" fill="#24a6f6"/>
    </g>
  </g>
</svg>
